Patient4_TMGait_0pt8_01_right_38_EMG.mot
version=1
nRows=30
nColumns=33
inDegrees=no
endheader
time	1LAddLong	2LGlutMax	3LGlutMed	4LIliopsoas	5LSemiMemb	6LBicFemLong	7LRecFem	8LVastMed	9LVastLat	10LGasMed	11LTibAnt	12lTibPost	13LPeroneusLong	14LSol	15LExtDigLong	16LFlexDigLong	17RAddLong	18RGlutMax	19RGlutMed	20RIliopsoas	21RSemiMemb	22RBicFemLong	23RRecFem	24RVastMed	25RVastLat	26RGasMed	27RTibAnt	28RTibPost	29RPeroneusLong	30RSol	31RExtDigLong	32RFlexDigLong
42.61	-0.018921	0.001678	-0.004883	-0.012665	-0.042419	-0.005951	0.097351	0.004578	0.03479	0.001221	-0.008087	0.001068	0.0383	-0.019989	-0.001678	-0.069122	0.000763	0.41748	0.10773	-0.031586	0.084991	0.007172	0.12375	0.014648	-0.063477	-0.007935	-0.16907	-0.005493	-0.093079	-0.047302	0.00061	-0.010376
42.611	-0.003204	-0.000153	-0.064087	0.002594	0.041199	0.005798	0.049286	0.006866	0.045013	0.005798	-0.027618	-0.007477	0.078735	-0.001373	-0.023193	0.016022	-0.001068	0.38422	0.044403	-0.11612	0.073242	0.009308	0.11078	-0.037842	-0.050659	0.005035	-0.50949	-0.003357	0.0914	-0.066376	-0.002747	-0.006714
42.612	-0.000916	-0.010834	-0.13489	0.010223	0.027618	0.019836	-0.08255	0.005951	0.040894	0.021057	-0.0177	-0.005035	0.039673	-0.056915	-0.02594	0.011292	-0.005646	0.38376	-0.050354	-0.22964	0.067596	-0.003052	0.14313	-0.092621	-0.04303	0.009003	-0.44922	-0.004425	0.22018	-0.085907	-0.007019	0.001068
42.613	0.008698	-0.025635	-0.062408	0.006104	0.005188	0.046539	-0.086212	0.00946	0.15198	0.038757	-0.03006	-0.001221	0.012817	-0.031738	-0.018158	0.013123	0.006714	0.40436	-0.083313	-0.16693	0.048523	-0.022888	0.27084	-0.089874	-0.047455	-0.01236	-0.34836	-0.002441	0.19745	-0.065918	-0.002289	-0.003815
42.614	0.001221	-0.035553	-0.036316	-0.006104	0.011292	0.054016	0.022736	0.000763	0.40619	0.012054	-0.001526	0.000916	-0.027618	-0.012207	0.006256	0.017242	0.014343	0.34958	0.11047	-0.057983	0.044708	-0.013733	0.42572	-0.093689	-0.020142	-0.011292	0.008392	-0.007477	0.11383	-0.067596	-0.004578	0.002441
42.615	-0.000305	-0.061798	-0.054321	0.014648	-0.009918	0.069275	0.13641	0.004272	0.25833	-0.004883	0.033112	-0.005951	-0.048828	0.019989	-0.077667	-0.003815	0.003357	0.33341	0.15793	0.089722	0.040741	-0.017548	0.448	-0.09079	-0.014038	-0.00885	0.12177	-0.004578	0.0737	-0.082397	-0.009613	0.007477
42.616	-0.001373	-0.084991	-0.048828	0.005493	-0.039825	0.076599	0.13428	-0.007019	0.000153	0.025482	-0.015564	-0.004883	0.029144	0.02533	-0.1651	-0.005798	0.006714	0.32684	0.13168	0.14862	0.036469	-0.024872	0.38284	-0.11627	0.001831	0.00061	0.2243	-0.008698	0.086212	-0.071564	-0.00885	0.010681
42.617	-0.006866	-0.050812	-0.053253	-0.015717	0.012207	0.039368	0.082092	-0.00946	-0.046387	0.041046	-0.063171	-0.005341	0.25269	-0.00061	-0.19562	-0.004425	0.010529	0.30518	0.11765	0.018311	0.034027	-0.032349	0.33081	-0.095978	-0.024872	-0.001831	0.19394	-0.003815	0.13977	-0.041046	-0.003662	0.001831
42.618	-0.001221	-0.078888	-0.070496	0.019989	0.046844	0.031891	0.11093	-0.000916	0.028381	-0.022583	-0.12848	0.00351	0.52597	-0.000305	-0.10513	0.001373	0.011444	0.25757	0.30472	-0.072327	0.018921	-0.037231	0.27603	-0.11627	-0.012054	0.000305	0.012817	-0.009003	-0.37064	-0.075226	-0.003815	0.006714
42.619	-0.011749	-0.13001	-0.12634	0.02594	0.036926	0.048523	0.1532	-0.007324	0.041199	-0.061188	-0.046082	-0.001984	0.58991	0.079346	0.009613	-0.001984	0.019989	0.21088	0.25284	-0.013428	0.027771	-0.015106	0.28946	-0.025177	-0.001221	-0.003357	-0.024109	-0.001984	-0.36057	-0.057373	-0.006409	0.020752
42.62	-0.00473	-0.10925	-0.13534	0.004883	0.021362	0.10346	0.14069	-0.001678	0.036316	-0.03891	0.15335	-0.00061	0.40726	0.10986	0.36713	0.003967	0.016632	0.22385	0.016785	0.093536	0.016785	-0.006104	0.20386	-0.001526	0.008392	-0.00946	0.006866	-0.007477	-0.031891	0.001831	-0.009613	0.017395
42.621	0.000153	-0.10773	-0.20111	0.005035	-0.023804	0.079956	0.15045	0.004578	-0.005798	-0.03479	0.15472	-0.00885	-0.15961	0.032196	0.30014	0.006256	0.006409	0.1857	0.23163	0.26123	0.013275	-0.015411	-0.042419	-0.050507	-0.000458	-0.009766	0.12268	-0.009155	0.19745	0.00351	-0.004578	0.01297
42.622	0.007629	-0.092621	-0.23315	0.005341	-0.049286	-0.19394	0.14038	-0.008392	-0.06012	-0.019989	0.011749	-0.000763	-0.21942	0.04364	0.224	-0.022888	0.009003	0.18478	0.23377	0.38589	0.020294	-0.024567	-0.17258	-0.057678	-0.009308	-0.011749	0.024719	-0.002747	-0.02243	-0.042114	-0.003815	0.017395
42.623	-0.001678	-0.1207	0.010071	0.001373	-0.045166	-0.16693	0.14633	-0.000305	-0.02655	-0.031128	-0.027313	-0.006104	0.15045	0.023041	0.031738	-0.015564	0.015106	0.18402	0.60593	0.1976	0.010071	-0.003967	-0.34363	-0.081787	-0.020752	-0.007782	-0.21713	-0.001678	-0.14267	-0.043945	-0.009613	0.014343
42.624	0.000153	-0.093384	0.058136	0.016479	0.030823	-0.07019	0.18097	-0.000916	-0.028992	-0.04364	0.02533	0.002747	-0.57724	0.037384	-0.080261	0.011597	0.006256	0.16739	0.41687	0.067902	0.011597	-0.016937	-0.32761	-0.059052	-0.016632	-0.00946	-0.020905	0.000305	-0.070038	-0.027466	-0.005798	0.01358
42.625	-0.00473	-0.12238	0.038147	-0.015259	0.036163	0.019836	0.1561	0.005341	-0.00824	-0.043182	0.020752	0.00061	0.15182	-0.12146	-0.16144	0.005951	0.007172	0.12024	0.40878	-0.019989	0.014954	-0.016785	-0.095062	-0.027771	-0.01236	-0.014954	-0.055084	-0.005035	-0.16739	0.007629	-0.004578	0.011139
42.626	-0.000305	-0.11002	0.023499	-0.012054	-0.005493	-0.00061	0.15656	0.005035	-0.013428	-0.072937	-0.072632	-0.008392	-0.103	-0.062561	0.026703	0.009766	0.014038	0.14084	0.21408	-0.018768	0.011749	-0.028992	0.10208	-0.015259	-0.016174	-0.009003	-0.025177	-0.004272	-0.13214	0.041199	-0.001221	0.002747
42.627	-0.005798	-0.12863	0.03952	0.019684	-0.018311	-0.04364	0.13947	0.000458	-0.002136	-0.062714	-0.059357	0.000153	0.079803	0.033569	-0.019379	0.001221	0.010681	0.13092	0.054474	-0.045929	0.020447	-0.012817	0.19714	0.009613	-0.024719	-0.006104	-0.10056	-0.004578	-0.003052	0.007324	-0.00473	0.010223
42.628	-0.012512	-0.14893	0.011444	0.015564	-0.019226	-0.061646	0.21347	-0.007935	0.079193	-0.010834	0.021973	0	-0.072479	0.054169	0.22568	0.005035	0.01297	0.091858	-0.07309	-0.057678	0.029449	-0.017395	0.24139	-0.041656	-0.015869	-0.009003	-0.1593	-0.006104	0.14832	0.015869	-0.001984	0.005493
42.629	-0.01236	-0.1387	-0.032043	-0.005493	0.038605	-0.057983	0.29007	-0.002441	0.047455	0.014191	0.031891	0.009003	-0.15823	0.050659	-0.1976	-0.00473	0.014343	0.11856	0.069733	-0.084534	0.053558	-0.020142	0.24521	-0.1091	-0.009003	-0.018158	-0.084534	-0.001984	0.15717	-0.011444	-0.000916	0.003662
42.63	-0.010071	-0.12619	-0.065613	0.001678	-0.035553	-0.049744	0.35217	-0.005646	-0.039368	0.015411	0.099945	0.001678	-0.11353	-0.002136	-0.31418	0.002441	0.018158	0.071564	0.10254	-0.10407	0.09613	-0.03067	0.26932	-0.037689	-0.014191	-0.013885	-0.089417	-0.00946	0.11536	-0.002289	-0.004578	0.00351
42.631	-0.004578	-0.077667	0.019836	0.016479	-0.081482	-0.036316	0.34347	0.006866	-0.058289	0.014648	0.24094	-0.012817	-0.12375	0.005188	-0.34332	0.02121	0.012817	0.084686	0.19333	-0.14069	0.078125	-0.012512	0.29419	0.005493	0.00946	-0.016174	-0.096741	0.000763	0.032196	0.015564	-0.001221	-0.016785
42.632	0.00473	-0.074463	0.11917	0.001373	-0.0383	-0.028229	0.23697	0.010529	-0.017395	-0.013885	0.15213	0.009155	-0.13062	-0.068512	0.062866	0.014801	0.005798	0.064545	0.14236	-0.10376	0.061035	0.006256	0.29343	0.14191	0.025635	-0.011444	-0.11932	-0.006409	0.040894	-0.02655	-0.010681	-0.021057
42.633	0.010376	-0.066986	0.1355	0.020447	0.079346	0.056152	0.12665	0.013885	0.016632	-0.020752	0.088501	0.001221	-0.08255	0.017395	-0.11932	0.02121	0.006256	0.066833	0.1976	0.001678	0.031281	-0.001678	0.25009	0.16174	0.039673	-0.004883	-0.098572	-0.002594	-0.083008	-0.023193	-0.003662	-0.015564
42.634	0.015411	-0.07782	0.024719	0.023499	0.072784	0.10086	0.034027	0.022888	0.19302	-0.044403	-0.20783	0.003357	0.47394	0.069733	0.28061	-0.007324	0.012054	0.025482	0.094147	0.093994	0.018616	-0.013123	0.32303	0.13412	0.035553	-0.005188	-0.021973	-0.001831	-0.1503	-0.009003	-0.001068	-0.016479
42.635	0.014343	-0.11627	-0.017242	0.01236	-0.002899	0.077667	0.072937	0.01709	0.15381	-0.007019	-0.1619	0.011444	-0.21408	-0.12344	-0.027313	-0.00473	0.007324	0.010986	0.074005	0.088654	-0.005798	0.001678	0.27618	0.10635	0.016479	0.000458	0.027466	-0.003204	-0.031433	-0.020905	0.001984	-0.01709
42.636	0.016937	-0.10849	-0.06424	-0.01709	-0.003662	0.010223	0.040283	0.015106	0.098419	0.010681	-0.024261	0.003204	-0.33142	-0.13565	-0.17288	0.01297	0.008545	-0.016785	0.10391	-0.009308	-0.00824	-0.00946	0.27863	0.081329	0.008087	-0.005951	0.1622	-0.000916	0.054626	-0.011749	-0.002747	-0.009155
42.637	0.013123	-0.094452	-0.062408	-0.003052	0.042114	-0.036774	0.12344	-0.016022	0.09613	-0.017548	0.009613	0.00946	0.27069	-0.13153	-0.16998	-0.001526	0.001068	-0.040588	0.067749	-0.04837	-0.018158	0.014191	0.20233	0.032043	0.003967	-0.00946	0.2298	-0.002594	0.072174	0.005341	-0.001984	-0.016327
42.638	0.008545	-0.09079	-0.11032	0.005493	0.056763	-0.014038	0.10727	-0.01236	0.02594	-0.021515	-0.009918	0.003967	0.18692	-0.20157	-0.21332	0.007477	0.002747	-0.069427	0.26184	-0.011749	-0.011597	-0.007782	0.18173	0.021973	0.019073	-0.008698	0.17288	-0.00824	0.041809	0.006866	-0.002899	-0.006561
42.639	-0.001831	-0.066071	-0.09079	0.00885	0.029449	0.017853	0.08606	-0.024567	0.09201	0.002594	-0.018005	0.007019	-0.041504	-0.15579	0.28946	-0.002136	0.007324	-0.059357	0.20279	0.075226	-0.010071	0.009766	0.20905	0.011292	-0.013428	-0.011292	0.040283	-0.00412	0.19959	-0.019073	-0.000916	-0.00412
